<?xml version="1.0" standalone="no"?>
<!DOCTYPE svg PUBLIC "-//W3C//DTD SVG 20010904//EN"
 "http://www.w3.org/TR/2001/REC-SVG-20010904/DTD/svg10.dtd">
<svg version="1.0" xmlns="http://www.w3.org/2000/svg"
 width="1181.000000pt" height="1181.000000pt" viewBox="0 0 1181.000000 1181.000000"
 preserveAspectRatio="xMidYMid meet">

<g transform="translate(0.000000,1181.000000) scale(0.100000,-0.100000)"
fill="#000000" stroke="none">
<path d="M0 5905 l0 -5905 5905 0 5905 0 0 5905 0 5905 -5905 0 -5905 0 0
-5905z m5890 3211 c522 -63 999 -205 1444 -431 411 -208 736 -439 1055 -750
713 -696 1143 -1573 1263 -2580 17 -146 17 -680 0 -840 -52 -478 -186 -971
-358 -1318 -82 -164 -185 -291 -322 -394 -145 -109 -301 -177 -494 -214 -97
-19 -135 -21 -268 -16 -534 20 -959 285 -1287 802 -86 136 -164 308 -243 535
-18 52 -39 102 -47 110 -12 13 -63 15 -341 15 -361 0 -436 8 -622 67 -361 114
-588 341 -677 674 -24 93 -26 117 -32 404 -4 220 -10 311 -19 327 -25 45 -71
43 -437 -13 -126 -19 -287 -39 -357 -45 -368 -28 -739 61 -1026 245 -336 215
-671 648 -785 1012 -51 161 -62 238 -62 419 0 245 39 405 151 625 202 398 522
669 1144 972 453 220 974 362 1500 407 158 14 661 6 820 -13z"/>
<path d="M5255 8434 c-597 -32 -1137 -192 -1645 -489 -317 -185 -453 -313
-550 -517 -53 -112 -70 -184 -70 -299 0 -217 98 -427 306 -657 148 -163 317
-266 502 -304 132 -27 334 -21 612 21 482 71 647 67 835 -23 175 -84 322 -263
385 -469 39 -128 44 -178 45 -457 1 -242 3 -280 19 -318 67 -157 323 -216 781
-181 301 23 495 -33 649 -187 93 -93 123 -150 246 -464 113 -290 193 -430 317
-556 239 -244 617 -329 827 -185 99 68 143 140 225 364 359 975 278 2007 -227
2910 -165 293 -341 526 -582 768 -197 198 -331 309 -535 443 -511 338 -1037
528 -1620 585 -116 12 -418 20 -520 15z"/>
</g>
</svg>
